<?xml version="1.0" encoding="utf-8"?>
<!-- Generator: Adobe Illustrator 25.2.0, SVG Export Plug-In . SVG Version: 6.00 Build 0)  -->
<svg version="1.1" id="Layer_1" xmlns="http://www.w3.org/2000/svg" xmlns:xlink="http://www.w3.org/1999/xlink" x="0px" y="0px"
	 viewBox="0 0 225.4 226.4" style="enable-background:new 0 0 225.4 226.4;" xml:space="preserve">
<style type="text/css">
	.st0{fill:#FFFFFF;}
	.st1{fill:#F20C32;}
	.st2{fill:#009DF1;}
</style>
<path class="st0" d="M162.1,127.2c-6.1,21.6-26,37.4-49.5,37.4s-43.4-15.8-49.5-37.4H9.9v62.7C9.9,204.3,21.6,216,36,216h153.3
	c14.4,0,26.1-11.7,26.1-26.1v-62.7H162.1z"/>
<path class="st1" d="M215.5,36.5v62.7h-53.3c-6.1-21.6-26-37.5-49.5-37.5S69.2,77.6,63.1,99.2H9.9V36.5c0-14.4,11.7-26.1,26.1-26.1
	h153.3C203.7,10.4,215.4,22.1,215.5,36.5z"/>
<g>
	<path class="st2" d="M136.1,113.2c0,5.3-1.7,10.1-4.7,14c-4.3,5.7-11.1,9.4-18.8,9.4s-14.5-3.7-18.8-9.4c-2.9-3.9-4.7-8.8-4.7-14
		s1.7-10.1,4.6-14c4.3-5.8,11.1-9.5,18.9-9.5c7.7,0,14.6,3.8,18.9,9.5C134.4,103.1,136.1,107.9,136.1,113.2z"/>
</g>
</svg>
