<?xml version="1.0" encoding="utf-8"?>
<!-- Generator: Adobe Illustrator 25.2.0, SVG Export Plug-In . SVG Version: 6.00 Build 0)  -->
<svg version="1.1" id="Layer_1" xmlns="http://www.w3.org/2000/svg" xmlns:xlink="http://www.w3.org/1999/xlink" x="0px" y="0px"
	 viewBox="0 0 1294.6 462.1" style="enable-background:new 0 0 1294.6 462.1;" xml:space="preserve">
<style type="text/css">
	.st0{enable-background:new    ;}
	.st1{fill:#F20C32;}
	.st2{fill:#272727;}
	.st3{fill:none;}
	.st4{fill:#C80025;}
	.st5{fill:#009DF1;}
	.st6{fill:#FFFFFF;}
	.st7{fill:url(#SVGID_1_);}
	.st8{fill:url(#SVGID_2_);}
	.st9{fill:#606060;}
</style>
<g>
	<g class="st0">
		<path class="st1" d="M812,874.4c0,48.4-33.5,81.6-85.6,81.6h-61.2V792.8h61.2C778.5,792.8,812,825.8,812,874.4z M723.9,921.7
			c30,0,47.7-17.2,47.7-47.2s-17.7-47.7-47.7-47.7h-18.8v94.9H723.9z"/>
		<path class="st1" d="M934.4,824.7h-60.2v33h53.3v30.7h-53.3v35.8h60.2v31.9h-100V792.8h100V824.7z"/>
		<path class="st1" d="M1026.9,906.1l-29.3,50h-45.1l52.3-83l-53.5-80.2h46.3l32.8,49.3l28.8-49.3h45.1l-51.9,82.3l54,80.9h-46.2
			L1026.9,906.1z"/>
	</g>
	<g class="st0">
		<path class="st2" d="M1237.5,927.2h-60.9l-9.8,28.8h-41.6l59.1-163.3h46l59.1,163.3h-42.1L1237.5,927.2z M1207.1,836.8l-20,59.8
			h40.2L1207.1,836.8z"/>
		<path class="st2" d="M1371.7,897.5H1347v58.6h-39.8V792.8h64.4c40,0,60,22.6,60,52.6C1431.7,872.3,1413.4,897.5,1371.7,897.5z
			 M1368.7,865.8c15.8,0,22.6-7.9,22.6-20.5s-6.7-20.5-22.6-20.5h-21.6v40.9L1368.7,865.8L1368.7,865.8z"/>
		<path class="st2" d="M1516.9,897.5h-24.7v58.6h-39.8V792.8h64.4c40,0,60,22.6,60,52.6C1576.9,872.3,1558.5,897.5,1516.9,897.5z
			 M1513.8,865.8c15.8,0,22.6-7.9,22.6-20.5s-6.7-20.5-22.6-20.5h-21.6v40.9L1513.8,865.8L1513.8,865.8z"/>
	</g>
</g>
<rect x="254.8" y="85.5" class="st3" width="649.8" height="241"/>
<rect x="253.3" y="99.4" class="st3" width="516.3" height="259.9"/>
<g class="st0">
	<path class="st1" d="M328.4,177.9c20.3,0,37.8,9.3,47.2,23.3v-71h46.9v202.9h-46.9v-21.9c-8.5,14-24.7,24.1-47.2,24.1
		c-37.6,0-67.4-30.7-67.4-79C261,208.1,290.9,177.9,328.4,177.9z M342.1,218.8c-17.5,0-33.5,13.2-33.5,37.6s15.9,38.1,33.5,38.1
		c17.8,0,33.5-13.4,33.5-37.8C375.6,232.2,360,218.8,342.1,218.8z"/>
	<path class="st1" d="M524.5,335.3c-45,0-77.3-30.2-77.3-78.7s31.8-78.7,77.3-78.7c44.7,0,76.2,29.6,76.2,76.2c0,4.4-0.3,9-0.8,13.7
		H493.8c1.6,20,14,29.3,29.1,29.3c13.2,0,20.6-6.6,24.4-14.8h49.9C589.7,312.3,562.6,335.3,524.5,335.3z M494,241.8h58.7
		c0-16.7-13.2-26.3-28.8-26.3C508.6,215.5,496.8,224.8,494,241.8z"/>
	<path class="st1" d="M686.5,290.6l-24.7,42.5h-50.7l50.5-78.1l-51.8-74.9h52.6l29.3,42.2l24.7-42.2h50.7l-51.3,77l52.6,75.9h-52.6
		L686.5,290.6z"/>
</g>
<rect x="884.8" y="101.9" class="st3" width="629.8" height="224.8"/>
<g class="st0">
	<path class="st2" d="M847.9,189.5c21.2,0,36.3,9.7,44,22.3v-20.2h43.7v142.7h-43.7v-20.2c-7.9,12.5-23,22.3-44.2,22.3
		c-34.8,0-62.7-28.6-62.7-73.7C785,217.6,812.9,189.5,847.9,189.5z M860.7,227.6c-16.4,0-31.2,12.3-31.2,35
		c0,22.8,14.8,35.6,31.2,35.6c16.6,0,31.2-12.5,31.2-35.3S877.3,227.6,860.7,227.6z"/>
	<path class="st2" d="M1055.1,189.5c35,0,62.9,28.1,62.9,73.1s-27.9,73.7-62.9,73.7c-21,0-36.1-10-44-22v88h-43.7V191.6h43.7v20.2
		C1019,199.2,1034.1,189.5,1055.1,189.5z M1042,227.6c-16.4,0-31.2,12.5-31.2,35.3s14.8,35.3,31.2,35.3c16.6,0,31.5-12.8,31.5-35.6
		C1073.5,239.9,1058.7,227.6,1042,227.6z"/>
	<path class="st2" d="M1228.8,189.5c35,0,62.9,28.1,62.9,73.1s-27.9,73.7-62.9,73.7c-21,0-36.1-10-44-22v88h-43.7V191.6h43.7v20.2
		C1192.7,199.2,1207.8,189.5,1228.8,189.5z M1215.7,227.6c-16.4,0-31.2,12.5-31.2,35.3s14.8,35.3,31.2,35.3
		c16.6,0,31.5-12.8,31.5-35.6C1247.2,239.9,1232.3,227.6,1215.7,227.6z"/>
</g>
<rect x="-109.8" y="-283.2" class="st2" width="219.6" height="219.6"/>
<circle class="st2" cx="-309.6" cy="648.7" r="19.5"/>
<path class="st2" d="M154.8,245.1c-6.1,21.6-26,37.4-49.5,37.4s-43.4-15.8-49.5-37.4H2.6v62.7c0,14.4,11.7,26.1,26.1,26.1H182
	c14.4,0,26.1-11.7,26.1-26.1v-62.7L154.8,245.1L154.8,245.1z"/>
<rect x="139" y="-283.2" class="st1" width="219.6" height="219.6"/>
<rect x="387.8" y="-283.2" class="st4" width="219.6" height="219.6"/>
<rect x="636.6" y="-283.2" class="st5" width="219.6" height="219.6"/>
<circle class="st6" cx="-309.6" cy="648.7" r="19.5"/>
<path class="st6" d="M-309.6,613.6c-19.4,0-35.1,15.7-35.1,35.1s15.7,35.1,35.1,35.1c19.4,0,35.1-15.7,35.1-35.1
	S-290.2,613.6-309.6,613.6z M-309.6,678c-16.2,0-29.3-13.1-29.3-29.3s13.1-29.3,29.3-29.3s29.3,13.1,29.3,29.3S-293.4,678-309.6,678
	z"/>
<linearGradient id="SVGID_1_" gradientUnits="userSpaceOnUse" x1="-257.25" y1="2098" x2="-257.25" y2="2255.3" gradientTransform="matrix(1 0 0 1 0 -1520)">
	<stop  offset="0" style="stop-color:#F20C32"/>
	<stop  offset="1" style="stop-color:#C80025"/>
</linearGradient>
<path class="st7" d="M-175,578h-164.5c-11.3,0-20.5,9.2-20.5,20.5v136.8h39.8c5.2,0,10.2-2.6,13.2-6.9l70.1-100.6
	c4.7-6.8,12.4-10.8,20.7-10.8h61.7v-18.5C-154.5,587.2-163.7,578-175,578z M-309.6,678c-16.2,0-29.3-13.1-29.3-29.3
	s13.1-29.3,29.3-29.3s29.3,13.1,29.3,29.3S-293.4,678-309.6,678z"/>
<linearGradient id="SVGID_2_" gradientUnits="userSpaceOnUse" x1="-257.25" y1="2146.2" x2="-257.25" y2="2303.5" gradientTransform="matrix(1 0 0 1 0 -1520)">
	<stop  offset="0" style="stop-color:#F20C32"/>
	<stop  offset="1" style="stop-color:#C80025"/>
</linearGradient>
<path class="st8" d="M-216.2,626.2h61.7V763c0,11.3-9.2,20.5-20.5,20.5h-164.5c-11.3,0-20.5-9.2-20.5-20.5v-18.5h39.8
	c8.2,0,16-4,20.7-10.8l70.1-100.6C-226.4,628.8-221.4,626.2-216.2,626.2z"/>
<circle class="st5" cx="-309.6" cy="648.7" r="19.5"/>
<g>
	<path class="st6" d="M-172.6,86.8c0,2.4-0.3,4.8-0.8,7c-3.2,13.9-15.6,24.3-30.5,24.3c-14.9,0-27.3-10.4-30.5-24.3
		c-0.5-2.2-0.8-4.6-0.8-7s0.3-4.8,0.8-7c3.2-13.9,15.6-24.3,30.5-24.3c14.9,0,27.4,10.4,30.5,24.3C-172.8,82-172.6,84.3-172.6,86.8z
		"/>
</g>
<circle class="st2" cx="-309.6" cy="894" r="19.5"/>
<circle class="st6" cx="-309.6" cy="894" r="19.5"/>
<path class="st6" d="M-309.6,858.9c-19.4,0-35.1,15.7-35.1,35.1c0,19.4,15.7,35.1,35.1,35.1c19.4,0,35.1-15.7,35.1-35.1
	C-274.5,874.6-290.2,858.9-309.6,858.9z M-309.6,923.3c-16.2,0-29.3-13.1-29.3-29.3s13.1-29.3,29.3-29.3s29.3,13.1,29.3,29.3
	S-293.4,923.3-309.6,923.3z"/>
<path class="st6" d="M-175,823.3h-164.5c-11.3,0-20.5,9.2-20.5,20.5v136.8h39.8c5.2,0,10.2-2.6,13.2-6.9l70.1-100.6
	c4.7-6.8,12.4-10.8,20.7-10.8h61.7v-18.5C-154.5,832.5-163.7,823.3-175,823.3z M-309.6,923.3c-16.2,0-29.3-13.1-29.3-29.3
	s13.1-29.3,29.3-29.3s29.3,13.1,29.3,29.3S-293.4,923.3-309.6,923.3z"/>
<path class="st6" d="M-216.2,871.5h61.7v136.8c0,11.3-9.2,20.5-20.5,20.5h-164.5c-11.3,0-20.5-9.2-20.5-20.5v-18.5h39.8
	c8.2,0,16-4,20.7-10.8l70.1-100.6C-226.4,874.1-221.4,871.5-216.2,871.5z"/>
<circle class="st6" cx="-309.6" cy="894" r="19.5"/>
<polygon class="st9" points="-178.9,970.2 -195.2,954 -195.2,986.5 "/>
<path class="st5" d="M-139.5,214.7c0,2.4-0.3,4.8-0.8,7c-3.2,13.9-15.6,24.3-30.5,24.3s-27.3-10.4-30.5-24.3c-0.5-2.2-0.8-4.6-0.8-7
	s0.3-4.8,0.8-7c3.2-13.9,15.6-24.3,30.5-24.3s27.4,10.4,30.5,24.3C-139.8,209.9-139.5,212.2-139.5,214.7z"/>
<path class="st1" d="M208.2,154.4v62.7h-53.3c-6.1-21.6-26-37.5-49.5-37.5s-43.5,15.9-49.5,37.5H2.7v-62.7
	c0-14.4,11.7-26.1,26.1-26.1h153.3C196.4,128.3,208.1,140,208.2,154.4z"/>
<g>
	<path class="st5" d="M128.8,231.1c0,5.3-1.7,10.1-4.7,14c-4.3,5.7-11.1,9.4-18.8,9.4s-14.5-3.7-18.8-9.4c-2.9-3.9-4.7-8.8-4.7-14
		s1.7-10.1,4.6-14c4.3-5.8,11.1-9.5,18.9-9.5c7.7,0,14.6,3.8,18.9,9.5C127.1,221,128.8,225.8,128.8,231.1z"/>
</g>
<path class="st2" d="M149.4,620.6c-3.3,21.3-21.8,37.6-44,37.6s-40.7-16.3-44-37.6H2.6v69.7c0,14.4,11.7,26.1,26.1,26.1H182
	c14.4,0,26.1-11.7,26.1-26.1v-69.7H149.4L149.4,620.6z"/>
<path class="st1" d="M182,510.8H28.7c-14.4,0-26.1,11.7-26.1,26.1v69.7h58.8c3.3-21.3,21.8-37.6,44-37.6s40.7,16.3,44,37.6h58.8
	v-69.7C208.1,522.5,196.4,510.8,182,510.8z"/>
<g>
	<path d="M154.9,599.6c-6.1-21.6-26-37.5-49.5-37.5S61.9,578,55.9,599.6H0.1v28h55.8c6.1,21.6,26,37.4,49.5,37.4
		s43.4-15.8,49.5-37.4h55.8v-28H154.9z M105.3,637c-7.7,0-14.5-3.7-18.8-9.4c-2.9-3.9-4.7-8.8-4.7-14s1.7-10.1,4.6-14
		c4.3-5.8,11.1-9.5,18.9-9.5c7.7,0,14.6,3.8,18.9,9.5c2.9,3.9,4.6,8.7,4.6,14s-1.7,10.1-4.7,14C119.8,633.3,113,637,105.3,637z"/>
</g>
</svg>
